<?xml version="1.0" standalone="no"?>
<!DOCTYPE svg PUBLIC "-//W3C//DTD SVG 20010904//EN"
 "http://www.w3.org/TR/2001/REC-SVG-20010904/DTD/svg10.dtd">
<svg version="1.0" xmlns="http://www.w3.org/2000/svg"
 width="300.000000pt" height="289.000000pt" viewBox="0 0 300.000000 289.000000"
 preserveAspectRatio="xMidYMid meet">
<metadata>
Created by potrace 1.10, written by Peter Selinger 2001-2011
</metadata>
<g transform="translate(0.000000,289.000000) scale(0.100000,-0.100000)"
fill="#000000" stroke="none">
<path d="M930 2245 c0 -8 -4 -15 -10 -15 -5 0 -10 -11 -10 -25 l0 -25 153 2
152 2 -135 6 -135 6 168 2 c127 2 168 -1 171 -10 2 -7 29 -94 61 -193 93 -294
145 -463 145 -471 0 -27 -22 27 -54 130 -21 65 -39 116 -41 114 -3 -3 75 -267
83 -278 1 -2 12 1 22 8 29 18 646 17 654 0 5 -10 7 -10 12 0 3 6 12 12 20 12
9 0 14 11 14 30 l0 30 -329 0 -330 0 -65 203 c-35 111 -84 265 -108 342 l-44
140 -197 3 c-171 2 -197 0 -197 -13z"/>
<path d="M1570 2245 c0 -8 -4 -15 -9 -15 -5 0 -11 -11 -13 -25 l-5 -25 126 2
126 2 -110 6 c-65 4 49 7 278 8 245 1 387 -2 387 -8 0 -5 -9 -29 -20 -52 -10
-24 -37 -101 -60 -173 -22 -71 -51 -164 -64 -205 l-23 -75 -302 -3 c-258 -2
-301 -4 -301 -17 0 -8 -4 -15 -10 -15 -5 0 -10 -12 -10 -26 0 -21 3 -25 18
-18 9 5 158 10 331 11 173 1 316 5 318 7 5 5 202 617 203 629 0 4 -193 7 -430
7 -376 0 -430 -2 -430 -15z"/>
<path d="M2013 2183 c54 -2 139 -2 190 0 51 1 7 3 -98 3 -104 0 -146 -2 -92
-3z"/>
<path d="M1272 2150 c-1 -17 86 -280 87 -265 1 6 -19 71 -43 145 -24 74 -44
128 -44 120z"/>
<path d="M1788 2130 c-79 -24 -142 -110 -143 -195 0 -36 5 -57 18 -69 19 -19
23 -31 7 -21 -17 10 -11 -12 7 -26 15 -12 16 -12 8 1 -8 13 -7 13 8 1 10 -8
15 -16 12 -19 -6 -7 25 -42 38 -42 5 0 -1 9 -14 20 -13 10 -19 19 -14 19 13 1
63 -38 50 -39 -31 -1 27 -20 61 -20 115 0 208 96 208 213 -1 47 -6 66 -30 100
-49 70 -136 101 -216 77z m134 -53 c23 -10 42 -27 51 -49 22 -47 29 -91 17
-108 -8 -12 -10 -9 -10 13 0 33 -21 83 -49 115 -22 26 -82 39 -125 28 -33 -8
-86 -53 -97 -84 -5 -14 -12 -22 -15 -19 -11 11 37 77 67 93 16 8 27 19 25 23
-9 14 97 5 136 -12z m-11 -55 c76 -68 10 -202 -88 -177 -40 10 -83 58 -83 95
0 42 15 67 53 90 45 28 81 25 118 -8z m-191 -138 c0 -4 7 -16 17 -26 15 -17
15 -18 -1 -18 -9 0 -19 8 -22 18 -3 9 -10 25 -15 34 -13 26 -11 31 6 14 8 -8
15 -18 15 -22z m67 -85 c1 -13 0 -18 -3 -11 -3 6 -10 10 -15 6 -5 -3 -9 4 -9
16 0 30 24 20 27 -11z"/>
<path d="M722 2038 c-2 -10 -8 -15 -13 -12 -5 3 -9 -9 -9 -25 0 -23 5 -31 18
-31 10 0 23 5 29 11 15 15 420 14 439 -2 11 -9 15 -8 20 5 3 9 12 16 19 16 7
0 12 11 11 26 l-1 26 -254 1 c-234 2 -255 1 -259 -15z"/>
<path d="M980 1905 c0 -8 -4 -15 -10 -15 -5 0 -10 -11 -10 -25 0 -22 4 -25 33
-25 17 0 39 4 47 10 9 6 17 5 23 -3 7 -9 10 -9 14 1 2 6 15 12 27 12 12 0 28
-6 35 -12 11 -10 14 -10 18 0 6 15 33 16 33 1 0 -8 6 -7 17 2 11 10 14 10 9 2
-5 -9 0 -13 13 -13 12 0 21 5 21 10 0 6 7 10 15 10 10 0 15 10 15 30 l0 30
-150 0 c-127 0 -150 -2 -150 -15z"/>
<path d="M1362 1860 c0 -8 6 -31 13 -50 9 -23 14 -28 14 -15 0 11 -6 34 -14
50 -7 17 -13 23 -13 15z"/>
<path d="M590 1766 c0 -8 -7 -16 -15 -20 -8 -3 -15 -15 -15 -27 0 -19 4 -20
33 -13 17 4 173 9 346 10 238 3 318 1 329 -9 12 -9 16 -9 19 1 3 6 11 12 19
12 9 0 14 11 14 30 l0 30 -365 0 c-305 0 -365 -2 -365 -14z"/>
<path d="M860 1625 c0 -8 -4 -15 -10 -15 -5 0 -10 -11 -10 -25 l0 -25 250 0
c160 0 250 4 250 10 0 6 7 10 15 10 10 0 15 10 15 30 l0 30 -255 0 c-220 0
-255 -2 -255 -15z m353 -52 c-62 -2 -164 -2 -225 0 -62 1 -12 3 112 3 124 0
174 -2 113 -3z"/>
<path d="M1609 1440 c-37 -36 -39 -76 -5 -91 20 -10 30 -8 55 10 35 25 46 53
32 79 -18 33 -50 34 -82 2z"/>
<path d="M1985 1437 c-40 -40 -43 -57 -16 -81 29 -26 90 3 104 50 8 23 0 37
-31 53 -20 11 -27 8 -57 -22z"/>
<path d="M273 1140 c-33 -20 -63 -66 -63 -97 0 -10 7 -29 16 -41 8 -12 12 -27
8 -34 -5 -7 -3 -8 5 -3 8 4 18 -1 27 -14 42 -59 174 14 174 97 0 36 -27 80
-60 97 -39 20 -68 19 -107 -5z m87 -40 c8 -5 11 -10 5 -10 -5 0 -4 -4 4 -9 37
-24 10 -91 -37 -91 -32 0 -45 8 -59 35 -25 48 41 105 87 75z"/>
<path d="M479 1148 c-1 -7 -2 -59 -2 -115 -2 -86 1 -103 13 -103 36 1 43 16
38 89 -3 39 -2 71 2 71 10 0 41 -100 34 -111 -6 -11 7 -12 21 -1 21 14 46 64
41 78 -4 11 -2 12 13 5 16 -9 17 -17 10 -58 -5 -26 -11 -54 -14 -60 -5 -14 22
-17 49 -7 13 5 16 25 16 115 l0 109 -25 0 c-20 0 -33 -11 -57 -50 l-31 -50
-29 50 c-22 39 -34 50 -53 50 -14 0 -25 -6 -26 -12z"/>
<path d="M811 1147 c-14 -17 -82 -209 -76 -215 10 -11 54 10 60 29 6 17 14 20
48 17 37 -3 42 -6 39 -25 -3 -24 20 -31 47 -14 15 9 14 13 -31 139 -26 70 -33
82 -53 82 -12 0 -28 -6 -34 -13z m41 -98 c2 -15 -3 -24 -13 -27 -13 -2 -16 5
-15 36 0 31 3 36 13 26 7 -7 14 -23 15 -35z"/>
<path d="M981 1141 c-15 -27 -9 -211 6 -211 30 0 43 14 43 45 0 37 9 48 28 36
11 -7 17 -28 21 -73 1 -11 43 -10 60 1 12 8 10 15 -8 46 -20 35 -21 39 -5 56
25 28 21 69 -10 96 -36 30 -120 33 -135 4z m116 -47 c7 -19 -5 -31 -37 -36
-21 -2 -26 2 -28 25 -3 24 0 27 28 27 19 0 33 -6 37 -16z"/>
<path d="M1195 1148 c-2 -7 -5 -59 -7 -115 l-4 -103 57 0 c73 0 89 6 89 36 0
22 -4 24 -46 24 -38 0 -45 3 -42 18 2 10 13 17 28 18 47 2 50 4 50 28 0 22 -3
24 -41 19 -36 -5 -41 -4 -37 13 2 13 13 19 33 20 52 2 55 4 55 29 0 24 -2 25
-65 25 -44 0 -67 -4 -70 -12z"/>
<path d="M1378 1048 c-2 -62 -3 -115 -2 -117 2 -2 15 -1 29 3 19 5 25 13 25
34 0 15 5 34 10 42 8 13 11 12 24 -5 9 -11 16 -23 17 -27 1 -5 3 -12 4 -18 1
-5 3 -14 4 -20 1 -12 51 -13 69 -1 10 6 1 22 -34 65 l-46 57 28 32 c16 18 35
35 42 40 21 14 13 27 -17 27 -22 0 -37 -10 -61 -40 -17 -22 -35 -40 -40 -40
-4 0 -6 18 -3 40 5 38 4 40 -20 40 -25 0 -25 0 -29 -112z"/>
<path d="M1650 1152 c-49 -23 -90 -75 -90 -114 0 -10 15 -34 33 -55 17 -20 25
-33 17 -28 -12 6 -12 5 -3 -5 6 -7 32 -15 57 -17 43 -5 48 -3 86 35 51 51 56
104 13 152 -29 31 -83 47 -113 32z m80 -73 c23 -42 -3 -89 -48 -89 -73 0 -84
102 -12 112 33 5 49 -1 60 -23z"/>
<path d="M1954 1133 c-26 -28 -31 -90 -7 -86 7 2 34 -7 60 -18 44 -19 47 -22
30 -34 -19 -14 -46 -10 -59 8 -7 11 -58 -17 -58 -32 0 -15 28 -32 63 -38 65
-10 120 40 103 95 -4 11 -28 28 -57 41 -28 11 -48 25 -44 31 8 14 38 13 53 -2
10 -9 16 -8 30 6 16 16 16 18 -7 37 -34 28 -77 24 -107 -8z"/>
<path d="M2134 1146 c-3 -7 -6 -59 -7 -115 -2 -84 1 -101 13 -101 27 0 38 15
42 54 3 38 4 38 47 40 l43 2 -6 -48 c-5 -38 -4 -48 8 -48 43 0 46 8 46 121 0
102 -1 109 -20 109 -25 0 -40 -28 -33 -63 5 -26 4 -27 -41 -27 l-46 0 0 45 c0
39 -3 45 -20 45 -11 0 -23 -6 -26 -14z"/>
<path d="M2434 1150 c-11 -4 -33 -23 -48 -41 -25 -29 -28 -39 -23 -82 3 -33
11 -55 27 -70 13 -12 20 -15 16 -7 -6 13 -6 13 6 0 37 -44 137 -9 165 57 37
90 -52 180 -143 143z m93 -80 c18 -36 -8 -80 -47 -80 -29 0 -70 29 -70 51 0
21 22 50 43 58 29 11 59 -1 74 -29z"/>
<path d="M2626 1145 c-3 -9 -6 -61 -6 -116 0 -88 2 -99 18 -99 26 0 44 15 42
36 -4 37 0 44 29 44 34 0 71 39 71 75 0 43 -32 68 -92 73 -45 3 -56 1 -62 -13z
m106 -41 c13 -12 -5 -42 -28 -47 -29 -5 -38 5 -29 33 6 19 44 28 57 14z"/>
</g>
</svg>
