<?xml version="1.0" standalone="no"?>
<!DOCTYPE svg PUBLIC "-//W3C//DTD SVG 20010904//EN"
 "http://www.w3.org/TR/2001/REC-SVG-20010904/DTD/svg10.dtd">
<svg version="1.0" xmlns="http://www.w3.org/2000/svg"
 width="417.000000pt" height="402.000000pt" viewBox="0 0 417.000000 402.000000"
 preserveAspectRatio="xMidYMid meet">

<g transform="translate(0.000000,402.000000) scale(0.100000,-0.100000)"
fill="#000000" stroke="none">
<path d="M1295 3104 c-3 -20 -3 -39 0 -43 4 -3 113 -7 243 -8 l237 -1 34 -104
c18 -56 55 -173 82 -258 26 -85 79 -252 116 -370 l68 -215 460 -3 c253 -1 475
0 493 3 29 5 32 9 32 40 l0 35 -455 0 c-422 0 -455 1 -464 18 -5 9 -68 204
-140 432 -73 228 -139 436 -147 463 l-16 47 -268 0 -268 0 -7 -36z"/>
<path d="M2177 3103 c-4 -20 -4 -39 -1 -42 3 -4 248 -6 545 -6 296 0 539 -3
539 -7 0 -3 -20 -66 -44 -140 -24 -73 -74 -227 -111 -343 -37 -115 -74 -216
-83 -222 -12 -10 -112 -13 -423 -13 l-406 0 -7 -31 c-3 -17 -6 -35 -6 -40 0
-5 201 -9 454 -9 353 0 457 3 463 13 9 14 69 200 188 577 47 151 88 281 90
288 4 9 -120 12 -594 12 l-598 0 -6 -37z"/>
<path d="M2485 2963 c-68 -25 -116 -65 -156 -132 -30 -49 -34 -63 -34 -126 0
-54 6 -81 25 -119 24 -47 85 -106 123 -119 10 -4 16 -10 14 -14 -5 -8 21 -11
113 -14 99 -3 183 53 232 156 31 66 36 143 15 202 -50 135 -203 212 -332 166z
m135 -129 c72 -29 100 -116 65 -200 -15 -36 -77 -74 -120 -74 -38 0 -102 37
-123 72 -46 74 -23 156 56 198 46 24 70 25 122 4z"/>
<path d="M1006 2829 c-3 -17 -6 -38 -6 -45 0 -12 57 -14 333 -14 182 0 342 3
354 6 23 6 34 33 26 64 -5 20 -14 20 -353 20 l-347 0 -7 -31z"/>
<path d="M1366 2644 c-3 -9 -6 -27 -6 -40 0 -24 0 -24 118 -25 163 -1 232 1
270 8 29 5 32 9 32 39 l0 34 -204 0 c-177 0 -205 -2 -210 -16z"/>
<path d="M814 2435 c-3 -20 -3 -39 1 -43 9 -9 945 -11 988 -3 28 6 32 11 35
44 l3 37 -510 0 -510 0 -7 -35z"/>
<path d="M1196 2249 c-12 -63 -35 -59 318 -59 178 0 338 3 355 6 28 6 31 10
31 45 l0 39 -349 0 -348 0 -7 -31z"/>
<path d="M2264 2030 c-11 -4 -28 -20 -38 -35 -15 -23 -16 -31 -5 -56 22 -54
71 -64 113 -23 30 31 33 63 9 92 -22 25 -51 33 -79 22z"/>
<path d="M2784 2029 c-26 -13 -53 -59 -46 -79 9 -28 45 -60 67 -60 37 0 75 37
75 73 0 38 -7 50 -37 66 -25 13 -31 13 -59 0z"/>
<path d="M394 1594 c-41 -20 -69 -51 -88 -94 -12 -31 -12 -40 1 -80 48 -145
215 -162 283 -30 27 52 25 94 -5 145 -40 69 -121 94 -191 59z m107 -77 c36
-30 43 -66 19 -104 -25 -41 -52 -49 -98 -26 -29 14 -39 26 -46 55 -8 31 -6 41
10 59 38 43 77 48 115 16z"/>
<path d="M667 1588 c-9 -41 -8 -263 2 -277 6 -10 16 -11 37 -4 28 9 29 12 34
89 l5 79 30 -58 c16 -31 34 -56 40 -54 5 2 24 24 40 50 17 26 33 47 38 47 4 0
7 -36 7 -80 0 -85 6 -94 51 -70 17 10 19 23 19 155 l0 145 -35 0 c-32 0 -38
-5 -76 -65 -22 -36 -42 -65 -44 -65 -2 0 -20 29 -40 65 -33 60 -39 65 -69 65
-27 0 -35 -5 -39 -22z"/>
<path d="M1126 1588 c-14 -23 -106 -264 -106 -280 0 -21 53 -6 79 23 25 27 33
30 77 27 41 -3 49 -6 52 -25 2 -12 10 -24 18 -27 18 -7 64 3 64 13 0 11 -88
249 -100 272 -15 27 -65 25 -84 -3z m64 -145 c0 -7 -11 -13 -26 -13 -17 0 -24
4 -20 13 3 6 9 21 13 31 6 18 7 18 20 1 7 -11 13 -25 13 -32z"/>
<path d="M1366 1588 c-10 -40 -7 -276 5 -283 5 -4 21 -4 35 -1 19 5 24 13 24
39 0 37 20 70 35 59 6 -4 24 -29 39 -56 26 -45 30 -48 59 -42 17 3 32 8 35 10
2 3 -8 27 -23 54 l-27 49 21 34 c24 39 26 67 9 104 -18 39 -57 55 -136 55 -64
0 -70 -2 -76 -22z m152 -77 c4 -27 -12 -41 -50 -41 -32 0 -42 13 -34 46 6 22
11 25 44 22 30 -2 38 -7 40 -27z"/>
<path d="M1665 1601 c-4 -8 -9 -237 -6 -289 1 -10 21 -13 79 -11 91 2 113 11
108 42 -3 12 -5 25 -5 28 -1 4 -16 7 -33 7 -78 0 -80 1 -76 25 2 18 11 23 48
27 40 4 45 8 48 32 3 26 1 27 -45 30 -40 3 -48 6 -48 23 0 15 8 21 30 23 66 6
75 11 75 42 l0 30 -84 0 c-47 0 -87 -4 -91 -9z"/>
<path d="M1917 1583 c-10 -55 -8 -271 3 -278 6 -4 22 -4 36 -1 18 5 24 13 24
35 0 16 8 39 18 51 l18 22 42 -56 c40 -53 45 -56 79 -51 20 2 37 6 40 8 2 2
-24 39 -57 82 -51 66 -58 80 -48 94 7 9 29 37 50 62 21 26 38 50 38 53 0 3
-16 6 -36 6 -38 0 -47 -7 -101 -77 -14 -18 -29 -30 -34 -27 -5 3 -9 27 -9 55
0 47 -1 49 -29 49 -23 0 -30 -5 -34 -27z"/>
<path d="M2275 1595 c-117 -63 -128 -189 -24 -264 72 -52 155 -36 212 40 45
62 28 166 -36 211 -39 28 -113 34 -152 13z m117 -85 c25 -26 29 -36 24 -62 -7
-37 -23 -57 -53 -69 -53 -20 -121 40 -107 95 10 40 31 54 97 65 5 0 22 -13 39
-29z"/>
<path d="M2719 1579 c-40 -42 -38 -79 4 -115 17 -15 31 -31 30 -35 -1 -4 6 -5
16 -2 24 6 61 -13 61 -32 0 -23 -38 -28 -67 -10 -20 14 -31 15 -49 6 -59 -26
5 -91 90 -91 49 0 100 47 100 93 0 45 -17 65 -81 93 -28 13 -54 28 -58 34 -11
17 23 23 56 10 27 -12 33 -11 52 9 l22 22 -28 25 c-43 37 -110 34 -148 -7z"/>
<path d="M2966 1588 c-10 -40 -7 -276 5 -283 5 -4 21 -4 34 -1 21 5 24 13 27
59 l3 52 58 3 57 3 0 -56 c0 -62 13 -76 56 -57 24 11 24 13 24 157 l0 145 -30
0 c-24 0 -33 -6 -40 -26 -6 -14 -8 -36 -6 -49 6 -34 -15 -47 -71 -43 l-48 3
-3 58 c-3 55 -4 57 -31 57 -21 0 -30 -6 -35 -22z"/>
<path d="M3358 1580 c-31 -21 -51 -43 -62 -71 -23 -56 -20 -79 14 -133 32 -50
76 -76 130 -76 97 0 176 113 145 204 -36 103 -136 136 -227 76z m118 -50 c7 0
21 -14 30 -32 13 -26 14 -38 5 -70 -13 -43 -36 -57 -81 -50 -86 13 -98 135
-15 155 11 2 26 3 33 1 8 -2 20 -4 28 -4z"/>
<path d="M3656 1593 c-8 -26 -10 -282 -2 -290 4 -4 19 -2 34 3 18 6 28 18 30
34 6 57 12 68 31 63 24 -6 75 20 95 49 24 34 20 92 -8 125 -21 25 -32 28 -99
31 -67 4 -76 2 -81 -15z m141 -69 c9 -25 -17 -54 -47 -54 -26 0 -30 4 -30 28
0 16 3 32 7 35 11 11 65 4 70 -9z"/>
</g>
</svg>
